<svg width="612" height="546" viewBox="0 0 612 546" fill="none" xmlns="http://www.w3.org/2000/svg">
<path d="M588.63 79.9592L213.812 0.637235C197.954 -2.71776 182.236 7.51324 178.881 23.3712L171.76 69.1332L604.237 160.652L611.358 114.89C614.713 99.0382 604.488 83.3152 588.63 79.9592Z" fill="#770E31"/>
<path d="M431.009 170.357C426.631 154.591 410.155 145.272 394.394 149.643L323.24 169.396L155.498 133.896L137.05 221.061L21.7862 253.053C6.02623 257.425 -3.29277 273.901 1.07823 289.662L66.0362 523.74C70.4142 539.5 86.8912 548.825 102.651 544.448L475.259 441.045C491.019 436.667 500.338 420.197 495.967 404.43L484.817 364.246L526.606 373.081C542.464 376.442 558.182 366.211 561.537 350.353L587.976 225.416L437.45 193.563L431.009 170.357ZM474.04 289.325L483.255 245.773C484.639 239.252 491.105 235.046 497.625 236.423L541.177 245.644C547.704 247.028 551.91 253.487 550.533 260.014L541.318 303.566C539.934 310.087 533.469 314.299 526.948 312.916L483.396 303.701C476.863 302.312 472.656 295.846 474.04 289.325ZM28.2702 276.412L131.385 247.806L374.684 180.289L400.865 173.015C401.343 172.886 401.82 172.825 402.286 172.825C404.386 172.825 406.897 174.203 407.631 176.842L410.705 187.912L420.336 222.616L37.1482 328.952L24.4432 283.184C23.6472 280.312 25.3992 277.208 28.2702 276.412ZM472.601 410.907C473.091 412.683 472.577 414.152 472.056 415.071C471.542 415.989 470.55 417.19 468.774 417.679L96.1732 521.082C95.7022 521.211 95.2182 521.278 94.7522 521.278C92.6522 521.278 90.1412 519.894 89.4072 517.255L51.5192 380.721L434.707 274.379L458.078 358.587L472.601 410.907Z" fill="#770E31"/>
<path d="M156.379 420.25C154.591 413.821 147.88 410.025 141.451 411.807L97.936 423.887C91.513 425.669 87.711 432.386 89.499 438.815L101.573 482.324C103.361 488.753 110.072 492.549 116.501 490.761L160.016 478.687C166.445 476.905 170.241 470.188 168.459 463.759L156.379 420.25Z" fill="#770E31"/>
</svg>
