<svg width="1465" height="1465" viewBox="0 0 1465 1465" fill="none" xmlns="http://www.w3.org/2000/svg">
<path d="M1376.65 764.902C1353.11 762.086 1331.75 778.896 1328.95 802.434C1293.68 1097.97 1041.98 1320.85 743.465 1320.85C601.899 1320.85 465.026 1270.01 358.075 1177.68C269.498 1101.23 206.024 1000.57 175.142 889.312L226.411 917.478C247.188 928.879 273.286 921.301 284.687 900.523C296.099 879.745 288.509 853.647 267.732 842.246L136.034 769.898C115.267 758.498 89.2028 766.065 77.7688 786.809L5.33128 918.35C-6.1027 939.117 1.46407 965.215 22.2196 976.649C41.3992 986.496 67.4078 981.298 80.5183 959.76L97.3731 929.169C134.346 1049.95 205.04 1158.98 301.978 1242.66C424.521 1348.44 581.3 1406.69 743.465 1406.69C1085.42 1406.69 1373.76 1151.29 1414.18 812.605C1416.99 789.067 1400.19 767.708 1376.65 764.902Z" fill="white"/>
<path d="M1439.04 423.749C1417.29 414.372 1392.03 424.397 1382.64 446.17L1369.15 477.432C1323.57 366.222 1247.9 267.306 1151.55 194.242C1033.35 104.615 892.241 57.2471 743.466 57.2471C587.604 57.2471 435.519 111.533 315.245 210.114C196.624 307.342 113.96 443.029 82.4856 592.174C77.5901 615.366 92.4331 638.133 115.625 643.029C118.609 643.666 121.582 643.956 124.522 643.956C144.383 643.956 162.21 630.097 166.469 609.9C193.931 479.79 266.089 361.393 369.654 276.504C474.627 190.465 607.387 143.075 743.466 143.075C873.352 143.075 996.533 184.418 1099.67 262.634C1188.36 329.885 1256.93 422.162 1295.85 525.615L1241.5 502.233C1219.72 492.878 1194.48 502.926 1185.11 524.699C1175.74 546.471 1185.8 571.72 1207.58 581.086L1345.63 640.458C1351.17 642.839 1356.91 643.968 1362.58 643.968C1379.2 643.968 1395 634.255 1402.01 618.037L1461.46 480.159C1470.85 458.386 1460.81 433.138 1439.04 423.749Z" fill="white"/>
<path d="M593.058 509.51L466.144 716.216C463.652 721.245 458.589 724.174 453.324 724.174C451.189 724.174 449.021 723.693 446.987 722.676C439.61 719.021 431.786 717.289 424.074 717.289C405.04 717.289 386.743 727.84 377.712 746.047L370.079 761.449C357.404 787.033 367.877 818.048 393.45 830.723L864.4 1064.07C871.776 1067.73 879.6 1069.46 887.312 1069.46C906.347 1069.46 924.643 1058.91 933.674 1040.7L941.308 1025.3C953.983 999.718 943.51 968.702 917.937 956.027C910.862 952.518 907.967 943.945 911.466 936.87L999.059 710.683C1041.55 600.959 993.348 476.94 887.927 424.699C855.57 408.672 821.089 401.016 787.067 401.016C710.237 401.016 635.731 440.012 593.058 509.51Z" fill="white"/>
<path d="M679.221 1127.86C712.684 1142.82 743.924 1128.43 760.432 1108.36L645.533 1051.43C636.95 1081.14 650.529 1113.64 679.221 1127.86Z" fill="white"/>
<path d="M977.856 380.148C978.315 379.321 978.784 378.494 979.209 377.644C994.141 347.5 981.813 310.963 951.68 296.031C916.205 283.088 884.138 291.817 870.066 323.559C869.642 324.431 869.306 325.314 868.926 326.186C888.598 331.517 907.766 338.738 926.029 347.791C944.482 356.934 961.795 367.809 977.856 380.148Z" fill="white"/>
</svg>
