<svg width="1465" height="1465" viewBox="0 0 1465 1465" fill="none" xmlns="http://www.w3.org/2000/svg">
<path d="M362.462 1042.62L318.97 943.528L128.686 1272.7L377.798 1265.33L501.411 1465L693.025 1140.04L560.534 1062.65L362.462 1042.62Z" fill="white"/>
<path d="M1146.03 943.528L1102.54 1042.62L904.466 1062.65L771.975 1140.04L963.589 1465L1087.2 1265.33L1336.31 1272.7L1146.03 943.528Z" fill="white"/>
<path d="M732.5 785.689C877.317 785.689 995.135 667.871 995.135 523.056C995.135 378.239 877.317 260.421 732.5 260.421C587.682 260.421 469.864 378.239 469.864 523.056C469.864 667.871 587.682 785.689 732.5 785.689ZM632.27 480.142L697.809 545.684L832.729 410.764L892.508 470.543L697.809 665.242L572.491 539.921L632.27 480.142Z" fill="white"/>
<path d="M1113.8 810.491L1239.94 698.399L1203.95 533.5L1239.94 368.596L1113.8 256.507L1046.02 102.058L878.176 85.0873L732.5 0L586.821 85.0873L418.984 102.058L351.199 256.507L225.055 368.599L261.05 533.5L225.058 698.402L351.199 810.491L418.987 964.937L586.824 981.91L732.5 1067L878.179 981.91L1046.02 964.937L1113.8 810.491ZM732.5 175.883C923.931 175.883 1079.67 331.625 1079.67 523.057C1079.67 714.488 923.931 870.23 732.5 870.23C541.068 870.23 385.326 714.491 385.326 523.057C385.326 331.622 541.068 175.883 732.5 175.883Z" fill="white"/>
</svg>
