<svg width="1483" height="1483" viewBox="0 0 1483 1483" fill="none" xmlns="http://www.w3.org/2000/svg">
<g clip-path="url(#clip0_126_1029)">
<path d="M741.5 0C594.846 0 451.484 43.4882 329.545 124.965C207.606 206.442 112.566 322.249 56.4437 457.74C0.321278 593.232 -14.3629 742.323 14.248 886.159C42.859 1030 113.48 1162.12 217.181 1265.82C320.881 1369.52 453.004 1440.14 596.841 1468.75C740.678 1497.36 889.769 1482.68 1025.26 1426.56C1160.75 1370.43 1276.56 1275.39 1358.04 1153.46C1439.51 1031.52 1483 888.155 1483 741.5C1482.78 544.91 1404.59 356.435 1265.58 217.424C1126.57 78.4138 938.091 0.220792 741.5 0ZM718.328 1436.08V950.047C718.328 943.901 720.77 938.007 725.115 933.662C729.461 929.316 735.355 926.875 741.5 926.875C747.646 926.875 753.54 929.316 757.885 933.662C762.231 938.007 764.672 943.901 764.672 950.047V1436.08C756.956 1436.33 749.263 1436.66 741.5 1436.66C733.738 1436.66 726.045 1436.33 718.328 1436.08ZM903.703 509.781H1265.95C1281.31 509.781 1296.05 503.678 1306.91 492.814C1317.78 481.95 1323.88 467.215 1323.88 451.852C1323.88 436.488 1317.78 421.753 1306.91 410.889C1296.05 400.025 1281.31 393.922 1265.95 393.922H818.199C795.474 409.033 768.791 417.094 741.5 417.094C714.21 417.094 687.527 409.033 664.801 393.922H217.051C201.687 393.922 186.953 400.025 176.089 410.889C165.225 421.753 159.122 436.488 159.122 451.852C159.122 467.215 165.225 481.95 176.089 492.814C186.953 503.678 201.687 509.781 217.051 509.781H579.297V1417.35C510.267 1400.8 444.201 1373.7 383.425 1337.02L532.953 1158.92V942.609L271.992 1253.6C199.729 1187.53 142.268 1106.92 103.386 1017.06C64.5031 927.202 45.0801 830.131 46.3933 732.229C47.7065 634.326 69.7262 537.811 111.005 449.027C152.284 360.243 211.886 281.201 285.895 217.097L416.399 347.578H580.247L380.39 147.721C489.171 81.4176 614.106 46.3436 741.5 46.3436C868.895 46.3436 993.83 81.4176 1102.61 147.721L902.753 347.578H1066.6L1197.08 217.12C1271.09 281.224 1330.69 360.266 1371.97 449.05C1413.25 537.834 1435.27 634.35 1436.58 732.252C1437.9 830.154 1418.47 927.225 1379.59 1017.08C1340.71 1106.94 1283.25 1187.56 1210.99 1253.62L950.047 942.609V1158.92L1099.58 1337.02C1038.8 1373.7 972.734 1400.8 903.703 1417.35V509.781Z" fill="white"/>
<path d="M741.5 139.031C716.918 139.031 693.342 148.797 675.96 166.179C658.578 183.561 648.812 207.136 648.812 231.719V278.062C648.812 302.645 658.578 326.22 675.96 343.602C693.342 360.985 716.918 370.75 741.5 370.75C766.082 370.75 789.658 360.985 807.04 343.602C824.422 326.22 834.188 302.645 834.188 278.062V231.719C834.188 207.136 824.422 183.561 807.04 166.179C789.658 148.797 766.082 139.031 741.5 139.031Z" fill="white"/>
<path d="M1459.83 0H1274.45C1268.31 0 1262.41 2.44132 1258.07 6.78689C1253.72 11.1325 1251.28 17.0263 1251.28 23.1719C1251.28 29.3174 1253.72 35.2113 1258.07 39.5569C1262.41 43.9024 1268.31 46.3437 1274.45 46.3438H1436.66V208.547C1436.66 214.692 1439.1 220.586 1443.44 224.932C1447.79 229.277 1453.68 231.719 1459.83 231.719C1465.97 231.719 1471.87 229.277 1476.21 224.932C1480.56 220.586 1483 214.692 1483 208.547V23.1719C1483 17.0263 1480.56 11.1325 1476.21 6.78689C1471.87 2.44132 1465.97 0 1459.83 0Z" fill="white"/>
<path d="M23.1719 231.719C29.3174 231.719 35.2113 229.277 39.5569 224.932C43.9024 220.586 46.3437 214.692 46.3438 208.547V46.3438H208.547C214.692 46.3437 220.586 43.9024 224.932 39.5569C229.277 35.2113 231.719 29.3174 231.719 23.1719C231.719 17.0263 229.277 11.1325 224.932 6.78689C220.586 2.44132 214.692 0 208.547 0L23.1719 0C17.0263 0 11.1325 2.44132 6.78689 6.78689C2.44132 11.1325 0 17.0263 0 23.1719L0 208.547C0 214.692 2.44132 220.586 6.78689 224.932C11.1325 229.277 17.0263 231.719 23.1719 231.719Z" fill="white"/>
<path d="M1459.83 1251.28C1453.68 1251.28 1447.79 1253.72 1443.44 1258.07C1439.1 1262.41 1436.66 1268.31 1436.66 1274.45V1436.66H1274.45C1268.31 1436.66 1262.41 1439.1 1258.07 1443.44C1253.72 1447.79 1251.28 1453.68 1251.28 1459.83C1251.28 1465.97 1253.72 1471.87 1258.07 1476.21C1262.41 1480.56 1268.31 1483 1274.45 1483H1459.83C1465.97 1483 1471.87 1480.56 1476.21 1476.21C1480.56 1471.87 1483 1465.97 1483 1459.83V1274.45C1483 1268.31 1480.56 1262.41 1476.21 1258.07C1471.87 1253.72 1465.97 1251.28 1459.83 1251.28Z" fill="white"/>
<path d="M208.547 1436.66H46.3438V1274.45C46.3437 1268.31 43.9024 1262.41 39.5569 1258.07C35.2113 1253.72 29.3174 1251.28 23.1719 1251.28C17.0263 1251.28 11.1325 1253.72 6.78689 1258.07C2.44132 1262.41 0 1268.31 0 1274.45L0 1459.83C0 1465.97 2.44132 1471.87 6.78689 1476.21C11.1325 1480.56 17.0263 1483 23.1719 1483H208.547C214.692 1483 220.586 1480.56 224.932 1476.21C229.277 1471.87 231.719 1465.97 231.719 1459.83C231.719 1453.68 229.277 1447.79 224.932 1443.44C220.586 1439.1 214.692 1436.66 208.547 1436.66Z" fill="white"/>
</g>
<defs>
<clipPath id="clip0_126_1029">
<rect width="1483" height="1483" fill="white"/>
</clipPath>
</defs>
</svg>
