<svg width="1465" height="1465" viewBox="0 0 1465 1465" fill="none" xmlns="http://www.w3.org/2000/svg">
<g clip-path="url(#clip0_126_1054)">
<path d="M61.0412 1465C51.3765 1464.99 41.8519 1462.69 33.2499 1458.28C24.6479 1453.88 17.2138 1447.49 11.5584 1439.66C5.90292 1431.82 2.18745 1422.75 0.717141 1413.2C-0.753163 1403.65 0.0636503 1393.88 3.10049 1384.71L69.9533 1183.46C23.8791 1101.73 -0.222656 1009.45 -0.000430198 915.625C0.364456 782.934 48.5836 654.827 135.803 554.828C223.023 454.828 343.389 389.648 474.8 371.256C490.848 369.07 507.106 373.349 519.999 383.151C532.892 392.953 541.363 407.475 543.548 423.523C545.734 439.57 541.455 455.829 531.653 468.722C521.851 481.614 507.329 490.085 491.281 492.271C389.087 506.574 295.485 557.266 227.662 635.037C159.84 712.807 122.352 812.436 122.083 915.625C121.827 996.212 144.742 1075.17 188.099 1143.1C193.018 1150.77 196.159 1159.43 197.293 1168.47C198.428 1177.5 197.526 1186.68 194.655 1195.32L154.002 1317.7L296.052 1282.11C311.305 1278.3 327.443 1280.49 341.119 1288.25C404.625 1324.22 476.391 1343.06 549.375 1342.92C648.667 1342.86 744.845 1308.25 821.415 1245.04C897.985 1181.83 950.176 1093.94 969.036 996.457C970.418 988.464 973.379 980.828 977.746 973.993C982.113 967.158 987.798 961.262 994.469 956.649C1001.14 952.036 1008.66 948.799 1016.6 947.127C1024.54 945.455 1032.73 945.381 1040.69 946.91C1048.66 948.44 1056.24 951.541 1062.99 956.033C1069.75 960.525 1075.54 966.318 1080.03 973.073C1084.51 979.829 1087.61 987.411 1089.14 995.377C1090.66 1003.34 1090.59 1011.53 1088.91 1019.47C1072.92 1102.86 1037.8 1181.41 986.31 1248.93C934.822 1316.46 868.37 1371.11 792.181 1408.6C715.992 1446.09 632.144 1465.4 547.231 1464.99C462.319 1464.59 378.657 1444.5 302.827 1406.28L75.8866 1463.17C71.0337 1464.4 66.0466 1465.01 61.0412 1465ZM625.433 1035.38C634.108 1022.56 644.987 1011.38 657.565 1002.36C682.82 983.866 702.914 959.207 715.926 930.738C728.939 902.268 734.437 870.938 731.895 839.739C729.353 808.54 718.855 778.513 701.405 752.526C683.955 726.538 660.135 705.458 632.219 691.297C604.303 677.135 573.223 670.367 541.946 671.637C510.669 672.906 480.24 682.172 453.564 698.55C426.887 714.927 404.855 737.869 389.569 765.186C374.283 792.502 366.254 823.281 366.25 854.584C366.25 870.773 372.681 886.299 384.128 897.747C395.576 909.194 411.102 915.625 427.291 915.625C443.48 915.625 459.007 909.194 470.454 897.747C481.902 886.299 488.333 870.773 488.333 854.584C488.33 844.144 491.005 833.878 496.102 824.767C501.199 815.656 508.547 808.005 517.445 802.544C526.343 797.083 536.492 793.996 546.923 793.576C557.354 793.157 567.719 795.42 577.026 800.149C586.333 804.878 594.272 811.916 600.083 820.588C605.895 829.261 609.385 839.279 610.221 849.685C611.056 860.091 609.208 870.538 604.854 880.026C600.501 889.514 593.786 897.728 585.353 903.881C561.131 921.445 540.212 943.162 523.566 968.023C514.634 981.533 511.434 998.037 514.67 1013.91C517.906 1029.77 527.314 1043.71 540.823 1052.64C554.332 1061.57 570.836 1064.77 586.705 1061.54C602.573 1058.3 616.5 1048.89 625.433 1035.38ZM549.375 1098.75C537.302 1098.75 525.5 1102.33 515.462 1109.04C505.423 1115.75 497.6 1125.28 492.979 1136.43C488.359 1147.59 487.15 1159.86 489.506 1171.7C491.861 1183.54 497.675 1194.42 506.212 1202.96C514.748 1211.49 525.625 1217.31 537.466 1219.66C549.307 1222.02 561.58 1220.81 572.734 1216.19C583.888 1211.57 593.422 1203.74 600.129 1193.7C606.836 1183.67 610.416 1171.86 610.416 1159.79C610.416 1143.6 603.985 1128.08 592.538 1116.63C581.09 1105.18 565.564 1098.75 549.375 1098.75ZM1403.96 854.584C1398.95 854.593 1393.97 853.978 1389.12 852.752L1224.39 811.5C1132.76 856.053 1028.23 866.421 929.632 840.738C831.036 815.056 744.85 755.009 686.601 671.416C628.351 587.823 601.865 486.176 611.915 384.787C621.964 283.397 667.888 188.928 741.415 118.395C814.941 47.8634 911.237 5.9044 1012.96 0.0764523C1114.68 -5.75149 1215.13 24.9346 1296.24 86.6075C1377.34 148.28 1433.75 236.886 1455.31 336.465C1476.88 436.044 1462.17 540.049 1413.85 629.749L1461.9 774.308C1464.94 783.482 1465.77 793.249 1464.3 802.803C1462.83 812.358 1459.12 821.428 1453.46 829.267C1447.8 837.105 1440.37 843.488 1431.76 847.889C1423.15 852.291 1413.62 854.585 1403.96 854.584ZM1037.71 122.084C956.762 122.084 879.131 154.239 821.893 211.477C764.655 268.715 732.5 346.346 732.5 427.292C732.5 508.238 764.655 585.869 821.893 643.107C879.131 700.344 956.762 732.5 1037.71 732.5C1089.81 732.588 1141.05 719.155 1186.41 693.513C1200.03 685.679 1216.18 683.475 1231.41 687.372L1310.99 707.284L1289.23 641.89C1286.36 633.247 1285.46 624.07 1286.59 615.033C1287.73 605.996 1290.87 597.327 1295.79 589.663C1326.74 541.175 1343.1 484.814 1342.92 427.292C1342.82 346.374 1310.64 268.798 1253.42 211.581C1196.2 154.363 1118.63 122.177 1037.71 122.084ZM1050.34 553.367L1172.43 431.284C1183.59 419.779 1189.77 404.346 1189.65 388.318C1189.53 372.29 1183.11 356.953 1171.77 345.62C1160.44 334.286 1145.1 327.865 1129.07 327.744C1113.04 327.623 1097.61 333.811 1086.11 344.971L1007.19 423.892L989.302 406.013C977.797 394.852 962.365 388.664 946.337 388.786C930.309 388.907 914.972 395.328 903.637 406.661C892.303 417.995 885.881 433.331 885.759 449.359C885.636 465.387 891.823 480.82 902.983 492.326L964.025 553.367C975.472 564.813 990.996 571.243 1007.18 571.243C1023.37 571.243 1038.9 564.813 1050.34 553.367Z" fill="white"/>
</g>
<defs>
<clipPath id="clip0_126_1054">
<rect width="1465" height="1465" fill="white"/>
</clipPath>
</defs>
</svg>
