<svg width="1478" height="1478" viewBox="0 0 1478 1478" fill="none" xmlns="http://www.w3.org/2000/svg">
<g clip-path="url(#clip0_126_1059)">
<path d="M1167.11 39.2575C1154.82 13.1825 1123.7 2.00106 1097.63 14.2946C1055.54 34.1372 1018.15 61.8867 985.686 92.3875C1048.53 67.2876 1111.55 52.0561 1170.33 48.1856C1169.53 45.1699 1168.49 42.1798 1167.11 39.2575Z" fill="white"/>
<path d="M929.214 346.161C929.619 345.271 950.75 299.909 988.64 247.405C977.183 253.269 965.794 259.456 954.527 265.999C895.315 300.39 843.677 341.497 803.152 384.468L886.719 376.438C905.245 374.657 921.451 363.081 929.214 346.161Z" fill="white"/>
<path d="M239.779 1396.46C239.779 1441.03 275.913 1477.14 320.473 1477.14C365.021 1477.14 401.155 1441.03 401.155 1396.46V861.838L239.779 955.559V1396.46Z" fill="white"/>
<path d="M327.071 721.986C301.798 702.666 272.177 681.519 239.779 659.98V772.684L327.071 721.986Z" fill="white"/>
<path d="M582.971 756.245L544.998 778.298C545.611 782.997 545.889 787.612 545.889 792.179C545.889 829.244 515.739 859.395 478.674 859.395C471.327 859.395 464.251 858.127 457.59 855.9L574.899 1413.9C584.07 1457.52 626.86 1485.42 670.466 1476.26C714.061 1467.09 741.993 1424.32 732.823 1380.7L598.924 743.784C594.216 748.541 588.925 752.789 582.971 756.245Z" fill="white"/>
<path d="M510.935 130.81C520.08 119.874 532.931 113.164 547.123 111.901C548.723 111.761 550.313 111.691 551.891 111.691C573.702 111.691 592.399 124.579 600.659 143.501L621.936 141.607C627.204 120.03 645.676 103.135 669 101.055C670.606 100.914 672.19 100.845 673.767 100.845C682.152 100.845 690.068 102.774 697.125 106.189C682.419 55.3343 640.666 14.1812 585.18 2.94821C505.703 -13.1421 428.223 38.2423 412.131 117.726C409.208 132.163 408.539 146.529 409.833 160.478L500.038 152.453C501.942 144.59 505.591 137.197 510.935 130.81Z" fill="white"/>
<path d="M691.073 204.605C687.032 205.987 682.82 206.949 678.457 207.337C676.857 207.477 675.267 207.547 673.693 207.547C645.888 207.547 623.056 186.644 620.59 158.928C620.541 158.378 620.56 157.84 620.528 157.293L604.768 158.695C604.833 159.239 604.94 159.768 604.989 160.316C607.596 189.607 585.88 215.57 556.58 218.183C554.977 218.323 553.39 218.393 551.816 218.393C551.82 218.393 551.813 218.393 551.816 218.393C524.011 218.393 501.177 197.49 498.71 169.767C498.662 169.222 498.677 168.681 498.645 168.136L412.066 175.84C423.396 232.002 467.233 278.693 526.909 290.775C596.39 304.84 664.32 267.348 691.073 204.605Z" fill="white"/>
<path d="M677.128 192.387C698.216 190.51 713.796 171.894 711.919 150.8C710.043 129.712 691.421 114.132 670.332 116.009C649.245 117.885 633.665 136.507 635.541 157.596C637.418 178.689 656.041 194.263 677.128 192.387Z" fill="white"/>
<path d="M548.453 126.852C527.366 128.729 511.786 147.351 513.663 168.439C515.539 189.533 534.162 205.107 555.25 203.23C576.337 201.353 591.917 182.737 590.04 161.643C588.164 140.555 569.541 124.976 548.453 126.852Z" fill="white"/>
<path d="M411.936 800.253C405.192 787.685 380.347 764.013 343.727 734.951L59.7832 899.86C32.5069 915.703 23.2342 950.659 39.0772 977.935L41.467 982.046C57.3099 1009.33 92.2659 1018.59 119.542 1002.75L421.529 827.368C416.522 819.3 413.127 810.126 411.936 800.253Z" fill="white"/>
<path d="M1401.72 432.568C1451.45 350.3 1460.23 272.944 1426.44 214.754L1390.79 153.375C1356.99 95.1969 1285.31 64.4599 1189.35 66.9006C1096.79 69.2395 991.421 102.118 892.659 159.474C793.897 216.837 713.126 292.063 665.227 371.305C615.492 453.58 606.717 530.934 640.513 589.126C641.042 590.037 641.66 590.879 642.202 591.777L567.918 634.922C551.234 626.465 530.758 626.331 513.379 636.419L467.177 663.252C510.603 702.475 531.507 732.334 540.324 758.374L573.139 739.317C590.518 729.222 600.542 711.365 601.466 692.686L675.68 649.586C675.852 649.885 675.986 650.198 676.157 650.497C708.717 706.553 776.283 737.106 867.11 737.106C870.571 737.106 874.076 737.061 877.6 736.972C970.16 734.633 1075.53 701.755 1174.29 644.398C1273.05 587.036 1353.82 511.81 1401.72 432.568ZM1122.26 554.802C950.729 654.424 769.514 671.114 691.496 600.553C668.866 497.821 773.172 348.687 944.694 249.071C1046.19 190.121 1151.09 160.188 1236.01 160.188C1294.51 160.188 1343.45 174.47 1375.31 203.199C1384.59 246.025 1372.02 298.29 1338.15 354.315C1293.04 428.948 1216.37 500.147 1122.26 554.802Z" fill="white"/>
<path d="M1105.97 500.596C961 593.932 801.844 607.132 741.533 533.201C743.242 536.656 745.076 540.045 747.184 543.319C801.428 627.569 967.669 617.145 1118.49 520.042C1269.31 422.935 1347.6 275.915 1293.36 191.666C1291.7 189.093 1289.83 186.705 1287.95 184.322C1287.44 183.673 1287 182.962 1286.48 182.323C1286.79 182.945 1287.02 183.595 1287.32 184.222C1327.64 269.874 1249.89 407.931 1105.97 500.596Z" fill="white"/>
<path d="M167.476 596.732C292.928 671.372 412.67 763.64 426.613 796.155C428.646 823.131 451.181 844.385 478.674 844.385C507.505 844.385 530.881 821.009 530.881 792.178C530.881 755.195 511.017 706.684 366.918 602.971C325.449 573.132 284.388 546.475 256.392 528.86C279.726 459.964 300.964 418.194 319.107 392.414L332.499 399.712C316.082 422.473 296.389 459.947 274.452 522.525C301.524 539.745 338.418 563.975 375.687 590.786C405.877 612.517 430.9 631.979 451.643 649.637L503.545 619.494C515.226 612.713 528.501 609.131 541.942 609.131C550.246 609.131 558.556 610.502 566.44 613.14L606.888 589.652L610.767 571.201C589.349 510.989 602.236 437.664 648.473 361.179C663.262 336.713 681.108 312.651 701.483 289.341L614.32 297.716C596.155 304.782 576.556 308.733 556.208 308.733C545.437 308.733 534.577 307.637 523.935 305.483C493.481 299.322 466.091 284.861 444.204 263.858L369.505 248.154C366.328 247.486 363.162 247.163 360.032 247.104C359.85 247.089 359.667 247.086 359.486 247.074C359.422 247.073 359.357 247.069 359.293 247.068C352.717 246.626 345.949 247.405 339.309 249.619C303.156 261.67 265.472 283.424 227.188 342.331C199.733 384.574 171.97 445.888 144.239 536.6C137.211 559.597 146.809 584.433 167.476 596.732Z" fill="white"/>
</g>
<defs>
<clipPath id="clip0_126_1059">
<rect width="1478" height="1478" fill="white"/>
</clipPath>
</defs>
</svg>
