<svg width="1483" height="1483" viewBox="0 0 1483 1483" fill="none" xmlns="http://www.w3.org/2000/svg">
<path d="M764.672 46.4062C726.561 46.4062 695.247 77.7186 695.247 115.829V486.489C695.247 524.6 726.561 556.142 764.672 556.142H787.753V671.912C787.729 676.363 788.988 680.725 791.379 684.479C793.77 688.234 797.191 691.221 801.234 693.083C805.277 694.944 809.771 695.602 814.178 694.977C818.585 694.353 822.72 692.474 826.086 689.563L981.727 556.142H1367.1C1405.21 556.142 1436.75 524.6 1436.75 486.489V115.829C1436.75 77.7186 1405.21 46.4062 1367.1 46.4062H764.672ZM115.859 92.569C77.7483 92.569 46.4343 124.109 46.4343 162.219V903.72C46.4343 941.832 77.7483 973.146 115.859 973.146H1274.41C1312.52 973.146 1344.01 941.832 1344.01 903.72V602.486H1251.33V857.376C1251.3 863.521 1248.84 869.407 1244.47 873.735C1240.11 878.064 1234.21 880.48 1228.06 880.457H162.248C159.202 880.474 156.181 879.892 153.36 878.741C150.539 877.59 147.973 875.895 145.808 873.751C143.643 871.607 141.922 869.056 140.744 866.246C139.566 863.437 138.953 860.422 138.941 857.376V208.564C138.929 205.502 139.524 202.467 140.692 199.637C141.86 196.806 143.577 194.236 145.744 192.073C147.911 189.91 150.486 188.197 153.319 187.035C156.151 185.873 159.186 185.283 162.248 185.301H648.903V115.829C648.903 107.641 650.601 99.8844 653.248 92.569H115.859ZM974.079 162.219C978.048 162.307 982.004 163.438 985.483 165.619L1170.9 281.614C1185.45 290.687 1185.45 311.87 1170.9 320.942L985.483 436.755C970.048 446.332 950.096 435.231 950.092 417.068V185.306C950.092 170.323 962.167 161.85 974.079 162.219ZM463.437 278.035C386.815 278.035 324.361 340.489 324.361 417.111V486.534C324.291 499.42 334.738 509.892 347.623 509.843V532.924C347.623 573.905 365.582 610.718 393.922 636.202V695.263H370.705C294.098 695.263 231.653 757.466 231.628 834.067H741.545C741.522 757.466 679.121 695.263 602.514 695.263H579.297V636.248C607.627 610.761 625.595 573.935 625.595 532.924V509.843C638.481 509.889 648.932 499.42 648.858 486.534V417.111C648.858 340.489 586.403 278.035 509.781 278.035H463.437ZM552.731 469.654L579.206 496.084V532.924C579.206 584.674 538.45 625.613 486.7 625.613C434.951 625.613 393.966 584.673 393.967 532.924V509.843H417.048C476.206 509.843 537.328 479.566 552.731 469.654ZM440.265 663.809C454.815 668.993 470.403 671.955 486.7 671.955C502.937 671.955 518.461 669.004 532.953 663.854V714.135C532.953 714.135 525.876 741.517 486.609 741.517C447.343 741.517 440.265 714.135 440.265 714.135V663.809ZM255.117 1019.49C191.331 1019.49 139.122 1071.52 139.122 1135.3V1158.56C139.122 1168.37 140.695 1177.75 143.014 1186.85C156.696 1183.59 170.885 1181.69 185.511 1181.69H324.542C339.208 1181.69 353.395 1183.53 366.993 1186.85C369.304 1177.75 370.886 1168.37 370.886 1158.56V1135.3C370.886 1071.52 318.902 1019.49 255.117 1019.49ZM741.409 1019.49C677.624 1019.49 625.46 1071.52 625.46 1135.3V1158.56C625.46 1168.39 627.07 1177.78 629.397 1186.9C643.036 1183.55 657.268 1181.69 671.984 1181.69H811.061C825.663 1181.69 839.793 1183.52 853.331 1186.81C855.635 1177.72 857.223 1168.35 857.223 1158.57V1135.31C857.223 1071.52 805.195 1019.49 741.409 1019.49ZM1228.06 1019.49C1164.28 1019.49 1112.25 1071.52 1112.25 1135.3V1158.56C1112.25 1168.37 1113.83 1177.75 1116.14 1186.85C1129.79 1183.5 1144.04 1181.69 1158.77 1181.69H1297.85C1312.4 1181.69 1326.51 1183.58 1340.12 1186.81C1342.43 1177.72 1344.01 1168.35 1344.01 1158.57V1135.3C1344.01 1071.52 1291.85 1019.49 1228.06 1019.49ZM185.511 1228.03C108.888 1228.03 46.4352 1290.45 46.4343 1367.07V1413.46C46.4226 1416.51 47.0163 1419.54 48.1812 1422.37C49.346 1425.2 51.0591 1427.77 53.2215 1429.93C55.3839 1432.09 57.953 1433.81 60.7806 1434.97C63.6082 1436.14 66.6384 1436.73 69.6965 1436.72H440.356C443.414 1436.73 446.444 1436.14 449.272 1434.97C452.1 1433.81 454.669 1432.09 456.831 1429.93C458.994 1427.77 460.707 1425.2 461.871 1422.37C463.036 1419.54 463.63 1416.51 463.618 1413.46V1367.07C463.618 1290.45 401.164 1228.03 324.542 1228.03H185.511ZM671.984 1228.03C595.362 1228.03 532.908 1290.45 532.908 1367.07V1413.46C532.896 1416.51 533.49 1419.54 534.655 1422.37C535.82 1425.2 537.533 1427.77 539.695 1429.93C541.857 1432.09 544.427 1433.81 547.254 1434.97C550.082 1436.14 553.112 1436.73 556.17 1436.72H926.83C929.888 1436.73 932.918 1436.14 935.746 1434.97C938.573 1433.81 941.142 1432.09 943.305 1429.93C945.467 1427.77 947.18 1425.2 948.345 1422.37C949.51 1419.54 950.104 1416.51 950.092 1413.46V1367.07C950.091 1290.45 887.683 1228.03 811.061 1228.03H671.984ZM1158.77 1228.03C1082.15 1228.03 1019.7 1290.45 1019.7 1367.07V1413.46C1019.69 1416.51 1020.28 1419.54 1021.45 1422.37C1022.61 1425.2 1024.32 1427.77 1026.49 1429.93C1028.65 1432.09 1031.22 1433.81 1034.04 1434.97C1036.87 1436.14 1039.9 1436.73 1042.96 1436.72H1413.67C1419.81 1436.69 1425.69 1434.23 1430.02 1429.87C1434.35 1425.5 1436.77 1419.6 1436.75 1413.46V1367.07C1436.75 1290.45 1374.47 1228.03 1297.85 1228.03H1158.77Z" fill="white"/>
</svg>
