<svg width="1483" height="1483" viewBox="0 0 1483 1483" fill="none" xmlns="http://www.w3.org/2000/svg">
<path d="M621.551 715.329C769.851 715.329 891.981 595.381 891.981 444.9C891.981 296.6 772.032 174.471 621.551 174.471C473.251 174.471 351.122 294.419 351.122 444.9C351.122 595.381 473.251 715.329 621.551 715.329ZM512.507 368.569C512.507 324.952 560.487 296.6 597.562 320.59L724.053 396.921C741.5 407.825 750.224 425.272 750.224 444.9C750.224 464.528 739.319 481.975 724.053 492.88L597.562 569.21C558.306 591.019 512.507 564.849 512.507 521.231V368.569Z" fill="white"/>
<path d="M1260.55 1105.71C1227.84 1105.71 1225.66 1105.71 1221.29 1105.71C1221.29 1099.16 1223.48 1092.62 1223.48 1088.26C1264.91 1064.27 1295.44 1022.83 1306.35 977.035C1334.7 966.131 1352.15 939.961 1352.15 909.428C1352.15 887.619 1341.24 867.991 1325.98 854.906V769.852C1325.98 713.149 1273.64 680.436 1206.03 667.35V215.908C1206.03 117.768 1125.34 37.0752 1027.2 37.0752H213.726C115.587 37.0752 34.8941 117.768 34.8941 215.908V826.555C34.8941 924.694 115.587 1005.39 213.726 1005.39H981.397C996.663 1040.28 1020.65 1070.81 1053.37 1088.26C1053.37 1092.62 1055.55 1099.16 1055.55 1105.71C1053.37 1105.71 1040.28 1105.71 1020.65 1105.71C918.152 1105.71 833.097 1190.76 833.097 1293.26V1373.96C833.097 1413.21 865.81 1445.93 905.066 1445.93H1378.32C1417.57 1445.93 1450.29 1413.21 1450.29 1373.96V1291.08C1448.11 1188.58 1363.05 1105.71 1260.55 1105.71ZM876.715 1373.96V1291.08C876.715 1212.57 942.141 1147.14 1020.65 1147.14C1018.47 1155.87 1020.65 1162.41 1027.2 1168.95L1110.07 1258.37V1400.13H902.885C889.8 1402.31 876.715 1389.22 876.715 1373.96ZM1112.25 1116.61C1129.7 1118.79 1147.14 1118.79 1164.59 1116.61C1164.59 1138.42 1171.13 1153.69 1182.04 1164.59L1138.42 1210.39L1094.8 1164.59C1107.89 1149.33 1112.25 1131.88 1112.25 1116.61ZM78.5118 215.908C78.5118 141.758 139.576 80.6928 213.726 80.6928H1029.38C1103.53 80.6928 1164.59 141.758 1164.59 215.908V660.808C1155.87 660.808 1147.14 660.808 1138.42 660.808C1044.64 660.808 950.865 693.521 950.865 767.671V809.108H425.272C416.549 778.575 388.197 756.766 355.484 756.766C322.771 756.766 294.419 778.575 285.696 809.108H200.641C189.737 809.108 178.832 820.012 178.832 830.916C178.832 841.821 189.737 852.725 200.641 852.725H283.515C292.238 883.258 320.59 905.066 353.303 905.066C386.016 905.066 414.368 883.258 423.091 852.725H948.684V854.906C933.418 867.991 922.513 887.619 922.513 909.428C922.513 931.237 931.237 948.684 946.503 961.769H213.726C139.576 961.769 78.5118 900.705 78.5118 826.555V215.908ZM1011.93 852.725V826.555C1014.11 824.374 1057.73 789.48 1055.55 791.66C1086.08 828.735 1120.97 841.821 1162.41 850.544C1192.94 857.087 1234.38 861.449 1264.91 865.811V942.141C1264.91 1001.03 1227.84 1062.09 1138.42 1062.09C1011.93 1062.09 1014.11 979.216 1011.93 852.725Z" fill="white"/>
</svg>
