<svg width="279" height="279" viewBox="0 0 279 279" fill="none" xmlns="http://www.w3.org/2000/svg">
<path d="M8.77379 236.211C36.7048 242.714 64.6365 242.475 92.5675 239.833V239.754C150.737 233.812 208.907 216.472 267.078 230.463C272.496 231.767 277.703 227.642 277.703 222.069V51.2385C277.703 50.8941 277.676 50.5558 277.636 50.2206C276.304 46.6972 273.186 43.6309 269.552 42.7884C216.45 30.4252 163.347 42.4124 110.245 49C104.353 49.7912 98.4608 50.5111 92.5686 51.1132V50.9497C64.6375 53.5915 36.7059 53.8302 8.77488 47.3271C3.92834 46.2035 0 48.9826 0 53.8313V225.168C0 230.01 3.92834 235.088 8.77379 236.211Z" fill="#0B67B2"/>
<path d="M277.702 50.4231C276.414 46.8163 273.254 43.647 269.551 42.7887C241.412 36.2377 213.273 36.5276 185.135 39.225V228.109C213.273 225.412 241.412 225.122 269.551 231.673C273.254 232.531 276.414 231.106 277.702 228.225V50.4231Z" fill="#FF473E"/>
<path d="M92.5684 239.834C123.424 236.915 154.28 231.067 185.136 228.109V39.2246C154.28 42.1824 123.424 48.0311 92.5684 50.9497V239.834Z" fill="#E8E8E8"/>
</svg>
