<svg width="1473" height="1473" viewBox="0 0 1473 1473" fill="none" xmlns="http://www.w3.org/2000/svg">
<g clip-path="url(#clip0_128_1076)">
<path d="M498.221 433.235H844.809V519.882H498.221V433.235Z" fill="white"/>
<path d="M498.221 606.529H844.809V693.176H498.221V606.529Z" fill="white"/>
<path d="M498.221 259.941H844.809V346.588H498.221V259.941Z" fill="white"/>
<path d="M498.221 1039.76H737.141C759.199 977.563 796.61 922.577 844.809 879.381V779.823H498.221V1039.76Z" fill="white"/>
<path d="M717.259 1126.41C568.128 1126.41 383.864 1126.41 238.279 1126.41C238.279 1104.03 238.279 295.056 238.279 173.294H931.456V820.522C983.69 794.496 1042.53 779.824 1104.75 779.824V0H64.9854V1473H859.978C756.654 1389.44 702.43 1259.91 717.259 1126.41ZM498.221 1299.71H238.279V1213.06H498.221V1299.71Z" fill="white"/>
<path d="M324.927 433.235H411.574V519.882H324.927V433.235Z" fill="white"/>
<path d="M324.927 259.941H411.574V346.588H324.927V259.941Z" fill="white"/>
<path d="M324.927 779.823H411.574V866.47H324.927V779.823Z" fill="white"/>
<path d="M324.927 606.529H411.574V693.176H324.927V606.529Z" fill="white"/>
<path d="M324.927 953.117H411.574V1039.76H324.927V953.117Z" fill="white"/>
<path d="M1104.75 866.471C937.53 866.471 801.485 1002.52 801.485 1169.74C801.485 1336.96 937.53 1473 1104.75 1473C1271.97 1473 1408.01 1336.96 1408.01 1169.74C1408.01 1002.52 1271.97 866.471 1104.75 866.471ZM1104.75 1351.77L950.749 1249.1L998.813 1177.01L1061.43 1218.75V996.441H1148.08V1218.76L1210.69 1177.01L1258.76 1249.11L1104.75 1351.77Z" fill="white"/>
</g>
<defs>
<clipPath id="clip0_128_1076">
<rect width="1473" height="1473" fill="white"/>
</clipPath>
</defs>
</svg>
