<svg width="1406" height="1406" viewBox="0 0 1406 1406" fill="none" xmlns="http://www.w3.org/2000/svg">
<g clip-path="url(#clip0_128_1098)">
<path d="M878.741 761.589C846.346 761.589 820.162 787.838 820.162 820.169V1054.51C820.162 1086.78 793.913 1113.09 761.572 1113.09H585.824V234.345C585.824 184.315 553.954 139.616 506.038 122.979L488.692 117.176H761.572C793.913 117.176 820.162 143.478 820.162 175.766V351.514C820.162 383.845 846.346 410.093 878.741 410.093C911.136 410.093 937.32 383.845 937.32 351.514V175.766C937.32 78.8704 858.467 0.0175781 761.572 0.0175781H131.811C129.58 0.0175781 127.713 1.01517 125.547 1.3048C122.726 1.06881 120.033 0.0175781 117.169 0.0175781C52.5507 0.0175781 0 52.5575 0 117.176V1171.66C0 1221.69 31.8694 1266.39 79.7861 1283.03L432.344 1400.55C444.294 1404.24 456.179 1406 468.665 1406C533.284 1406 585.824 1353.45 585.824 1288.83V1230.25H761.572C858.467 1230.25 937.32 1151.4 937.32 1054.51V820.169C937.32 787.838 911.136 761.589 878.741 761.589Z" fill="white"/>
<path d="M1388.82 544.426L1154.48 310.099C1137.74 293.343 1112.54 288.302 1090.64 297.377C1068.79 306.462 1054.49 327.841 1054.49 351.515V527.263H820.162C787.821 527.263 761.572 553.501 761.572 585.842C761.572 618.184 787.821 644.421 820.162 644.421H1054.49V820.169C1054.49 843.844 1068.79 865.222 1090.64 874.308C1112.54 883.383 1137.74 878.341 1154.48 861.596L1388.82 627.258C1411.72 604.357 1411.72 567.328 1388.82 544.426Z" fill="white"/>
</g>
<defs>
<clipPath id="clip0_128_1098">
<rect width="1406" height="1406" fill="white"/>
</clipPath>
</defs>
</svg>
