<svg width="1664" height="1483" viewBox="0 0 1664 1483" fill="none" xmlns="http://www.w3.org/2000/svg">
<path d="M1600.17 217.366L581.241 1.7323C538.131 -7.38814 495.402 20.4245 486.282 63.5338L466.924 187.936L1642.6 436.727L1661.95 312.325C1671.08 269.232 1643.28 226.489 1600.17 217.366Z" fill="white"/>
<path d="M1171.68 463.11C1159.78 420.251 1114.99 394.917 1072.15 406.8L878.717 460.498L422.716 363.992L372.566 600.947L59.2251 687.916C16.3821 699.801 -8.95127 744.591 2.93113 787.436L179.517 1423.77C191.418 1466.61 236.211 1491.96 279.054 1480.06L1291.97 1198.97C1334.82 1187.06 1360.15 1142.29 1348.27 1099.43L1317.96 990.19L1431.56 1014.21C1474.67 1023.34 1517.4 995.532 1526.52 952.423L1598.39 612.786L1189.19 526.195L1171.68 463.11ZM1288.66 786.52L1313.71 668.126C1317.47 650.399 1335.05 638.965 1352.78 642.708L1471.17 667.775C1488.91 671.537 1500.35 689.096 1496.6 706.839L1471.55 825.234C1467.79 842.961 1450.22 854.411 1432.49 850.651L1314.09 825.601C1296.34 821.825 1284.9 804.247 1288.66 786.52ZM76.8516 751.417L357.166 673.652L1018.57 490.11L1089.74 470.336C1091.04 469.985 1092.33 469.819 1093.6 469.819C1099.31 469.819 1106.14 473.565 1108.13 480.739L1116.49 510.833L1142.67 605.174L100.986 894.245L66.448 769.826C64.2841 762.019 69.0469 753.581 76.8516 751.417ZM1284.75 1117.04C1286.08 1121.86 1284.68 1125.86 1283.27 1128.36C1281.87 1130.85 1279.17 1134.12 1274.35 1135.45L261.443 1416.54C260.163 1416.89 258.847 1417.08 257.58 1417.08C251.872 1417.08 245.046 1413.31 243.05 1406.14L140.053 1034.98L1181.74 745.89L1245.27 974.806L1284.75 1117.04Z" fill="white"/>
<path d="M425.111 1142.43C420.251 1124.96 402.007 1114.64 384.53 1119.48L266.236 1152.32C248.775 1157.17 238.44 1175.43 243.3 1192.9L276.123 1311.18C280.984 1328.66 299.227 1338.98 316.704 1334.12L434.998 1301.29C452.475 1296.45 462.795 1278.19 457.95 1260.71L425.111 1142.43Z" fill="white"/>
</svg>
