<svg width="1465" height="1465" viewBox="0 0 1465 1465" fill="none" xmlns="http://www.w3.org/2000/svg">
<g clip-path="url(#clip0_128_1089)">
<path d="M947.1 587.574V479.616C947.1 418.678 904.154 367.595 846.953 354.965V334.604C846.953 150.105 696.848 0 512.349 0H434.75C250.252 0 100.146 150.105 100.146 334.604V354.965C42.9457 367.595 0 418.678 0 479.616V1022.58C0 1092.97 57.2838 1150.25 127.672 1150.25H581.765C576.558 1121.73 573.839 1092.37 573.839 1062.35C573.839 832.675 733.158 639.507 947.1 587.574ZM434.75 85.8398H512.349C649.521 85.8398 761.113 197.432 761.113 334.604V351.943H185.986V334.604C185.986 197.432 297.578 85.8398 434.75 85.8398ZM516.47 694.273V778.281C516.47 801.973 497.242 821.201 473.55 821.201C449.858 821.201 430.63 801.973 430.63 778.281V694.273H397.725C374.033 694.273 354.805 675.045 354.805 651.353C354.805 627.632 374.033 608.433 397.725 608.433H549.375C573.067 608.433 592.295 627.632 592.295 651.353C592.295 675.045 573.067 694.273 549.375 694.273H516.47Z" fill="white"/>
<path d="M1062.35 659.68C840.315 659.68 659.68 840.315 659.68 1062.35C659.68 1284.36 840.315 1465 1062.35 1465C1284.36 1465 1465 1284.36 1465 1062.35C1465 840.315 1284.36 659.68 1062.35 659.68ZM1061.93 1345.71H1061.5C1037.8 1345.71 1018.58 1326.51 1018.58 1302.79C1018.58 1279.1 1037.8 1259.87 1061.5 1259.87H1061.93C1085.42 1260.1 1104.42 1279.24 1104.42 1302.79C1104.42 1326.37 1085.42 1345.48 1061.93 1345.71ZM1180.73 1054.57C1160.07 1076.32 1133.8 1091.83 1105.25 1099.64V1159.73C1105.25 1183.42 1086.05 1202.65 1062.33 1202.65H1061.93C1038.41 1202.42 1019.41 1183.27 1019.41 1159.73V1062.53C1019.41 1038.95 1038.41 1019.84 1061.93 1019.61H1062.33C1083.76 1019.61 1103.7 1011.02 1118.47 995.457C1133.23 979.92 1140.75 959.518 1139.64 938.03C1137.55 897.771 1104.3 865.609 1063.96 864.808C1021.1 863.521 984.529 899.313 984.927 942.207C984.927 965.899 965.727 985.127 942.007 985.127C918.315 985.127 899.087 965.899 899.087 942.207C899.087 934.596 899.631 926.956 900.661 919.488C911.983 837.654 983.385 777.237 1065.67 778.997C1150.83 780.714 1220.96 848.613 1225.36 933.566C1227.71 978.804 1211.86 1021.78 1180.73 1054.57Z" fill="white"/>
</g>
<defs>
<clipPath id="clip0_128_1089">
<rect width="1465" height="1465" fill="white"/>
</clipPath>
</defs>
</svg>
