<svg width="233" height="233" viewBox="0 0 233 233" fill="none" xmlns="http://www.w3.org/2000/svg">
<path d="M225.127 35.724C152.542 18.8406 79.9572 56.43 7.32676 39.5011C3.27656 38.591 0 40.9119 0 44.962V188.039C0 192.089 3.27656 196.321 7.32676 197.277C79.9117 214.16 152.497 176.571 225.127 193.5C229.177 194.455 232.454 192.134 232.454 188.084V45.0076C232.454 40.9119 229.177 36.6796 225.127 35.724Z" fill="#0B67B2"/>
<path d="M232.454 44.9619C232.454 40.9117 229.177 36.6795 225.127 35.7238C224.672 35.6328 224.171 35.4963 223.716 35.4053L142.849 84.6447V34.04C125.101 36.1789 107.353 39.0914 89.6049 41.2303V84.0986L20.4785 42.0039C16.1098 41.3668 11.741 40.5477 7.32676 39.501C3.27656 38.5908 0 40.9117 0 44.9619V54.4275L58.25 89.8781H0V143.122H60.935L0 180.211V188.038C0 192.089 3.27656 196.321 7.32676 197.277C8.69199 197.595 10.0572 197.868 11.377 198.141L89.5594 150.495V198.915C107.307 196.776 125.055 193.863 142.804 191.725V149.903L209.654 190.678C214.797 191.361 219.939 192.271 225.082 193.499C229.132 194.455 232.408 192.134 232.408 188.084V179.711L172.384 143.168H232.408V89.9236H175.069L232.408 55.0191C232.454 51.6061 232.454 48.284 232.454 44.9619Z" fill="#FF473E"/>
<path d="M187.902 147.218L232.454 174.34V184.989L170.427 147.218H147.081L221.851 192.771C214.296 191.178 206.696 190.177 199.142 189.585L146.945 157.821V191.315C144.214 191.633 141.484 191.952 138.753 192.316V139.072H232.454V147.263H187.902V147.218ZM85.5092 199.461C88.2396 199.142 90.9701 198.823 93.7006 198.459V139.026H0V147.218H45.4623L0 174.886V185.535L62.9373 147.218H85.5092V147.673L5.32441 196.503C5.96152 196.821 6.64414 197.094 7.32676 197.276C10.9219 198.095 14.517 198.823 18.1121 199.415L85.5092 158.367V199.461ZM0 85.782V93.9734H93.7006V40.7293C90.9701 41.0934 88.2396 41.4119 85.5092 41.7305V76.3164L31.2639 43.2777C23.4365 42.5951 15.6092 41.4574 7.78184 39.6371L83.5523 85.782H60.2068L0 49.1027V59.7516L42.7773 85.782H0ZM146.945 33.5391C144.214 33.8576 141.484 34.1762 138.753 34.5402V93.9734H232.454V85.782H190.587L232.454 60.2977V49.6488L173.112 85.782H149.766L228.813 37.6348C227.721 36.7246 226.492 36.042 225.127 35.7234C222.442 35.0863 219.803 34.5857 217.118 34.0852L146.945 76.817V33.5391Z" fill="#E8E8E8"/>
</svg>
