<svg width="2464" height="1795" viewBox="0 0 2464 1795" fill="none" xmlns="http://www.w3.org/2000/svg">
<path fill-rule="evenodd" clip-rule="evenodd" d="M2129.71 1165C2128.71 1374.5 2128.38 1584.17 2128.71 1794C1956.64 1794.33 1784.64 1794 1612.71 1793C1599.19 1667.73 1540.19 1570.56 1435.71 1501.5C1329.68 1438.13 1218.01 1426.13 1100.71 1465.5C980.342 1512.87 901.172 1598.37 863.212 1722C856.772 1745.61 852.602 1769.61 850.712 1794C678.712 1794 506.712 1794 334.712 1794C335.045 1584.17 334.712 1374.5 333.712 1165C233.591 1184.23 147.424 1158.23 75.2118 1087C10.6608 1015.16 -12.3392 931.5 6.21176 836C28.0208 750.2 78.5208 687.7 157.712 648.5C214.182 622.77 272.682 616.6 333.212 630C333.712 420 333.879 210 333.712 0C506.045 0 678.382 0 850.712 0C863.842 125.476 922.502 222.976 1026.71 292.5C1123.21 351.36 1226.21 366.36 1335.71 337.5C1444.81 304.72 1524.98 237.553 1576.21 136C1597.05 92.978 1609.22 47.644 1612.71 0C1785.04 0 1957.38 0 2129.71 0C2129.54 210 2129.71 420 2130.21 630C2222.5 611.51 2304 633.01 2374.71 694.5C2448.42 765.96 2476.25 852.46 2458.21 954C2434.97 1050.9 2377.14 1117.73 2284.71 1154.5C2234.01 1172.41 2182.35 1175.91 2129.71 1165Z" fill="#FF9A2E"/>
</svg>
