<svg width="127" height="40" viewBox="0 0 127 40" fill="none" xmlns="http://www.w3.org/2000/svg">
<path d="M122.065 27.5591C121.177 27.5591 120.443 27.4392 119.865 27.1994C119.301 26.9455 118.849 26.6423 118.511 26.2897C118.172 25.923 117.919 25.5562 117.749 25.1895C117.594 24.8228 117.495 24.5195 117.453 24.2798C117.411 24.0259 117.39 23.8989 117.39 23.8989H119.738C119.738 23.8989 119.759 23.9906 119.802 24.174C119.858 24.3432 119.964 24.5407 120.119 24.7664C120.274 24.992 120.514 25.1966 120.838 25.3799C121.163 25.5492 121.593 25.6338 122.129 25.6338C122.778 25.6338 123.257 25.4857 123.567 25.1895C123.892 24.8933 124.054 24.5548 124.054 24.174C124.054 23.8073 123.92 23.5181 123.652 23.3065C123.384 23.095 123.003 22.9328 122.51 22.8199L120.986 22.4814C120.394 22.3404 119.837 22.1499 119.315 21.9102C118.807 21.6563 118.391 21.3248 118.067 20.9158C117.756 20.4926 117.601 19.9496 117.601 19.2867C117.601 18.3135 117.968 17.5095 118.701 16.8748C119.435 16.2401 120.422 15.9227 121.663 15.9227C122.467 15.9227 123.13 16.0356 123.652 16.2612C124.188 16.4869 124.611 16.769 124.922 17.1075C125.232 17.4319 125.465 17.7634 125.62 18.1019C125.775 18.4263 125.874 18.7014 125.916 18.927C125.972 19.1386 126.001 19.2444 126.001 19.2444H123.737C123.737 19.2444 123.716 19.1739 123.673 19.0328C123.631 18.8918 123.539 18.7296 123.398 18.5462C123.257 18.3487 123.046 18.1795 122.764 18.0384C122.496 17.8833 122.129 17.8057 121.663 17.8057C121.029 17.8057 120.57 17.9468 120.288 18.2288C120.006 18.5109 119.865 18.8142 119.865 19.1386C119.865 19.4771 119.999 19.7451 120.267 19.9426C120.549 20.1259 120.916 20.267 121.367 20.3657L122.869 20.7042C123.871 20.9299 124.696 21.3037 125.345 21.8255C125.994 22.3333 126.318 23.0738 126.318 24.047C126.318 24.6958 126.149 25.2882 125.81 25.8242C125.486 26.3461 125.006 26.7692 124.371 27.0936C123.737 27.4039 122.968 27.5591 122.065 27.5591Z" fill="#770E31"/>
<path d="M110.68 27.5592C109.453 27.5592 108.416 27.2842 107.57 26.7341C106.738 26.184 106.103 25.4647 105.666 24.5761C105.243 23.6875 105.031 22.7425 105.031 21.741C105.031 20.7396 105.243 19.7946 105.666 18.906C106.103 18.0174 106.738 17.2981 107.57 16.748C108.416 16.1979 109.453 15.9229 110.68 15.9229C111.893 15.9229 112.916 16.1979 113.748 16.748C114.594 17.2981 115.229 18.0174 115.652 18.906C116.089 19.7946 116.308 20.7396 116.308 21.741C116.308 22.7425 116.089 23.6875 115.652 24.5761C115.229 25.4647 114.594 26.184 113.748 26.7341C112.916 27.2842 111.893 27.5592 110.68 27.5592ZM110.68 25.507C111.371 25.507 111.95 25.3307 112.415 24.9781C112.895 24.6254 113.254 24.16 113.494 23.5817C113.748 23.0034 113.875 22.3899 113.875 21.741C113.875 21.0781 113.748 20.4646 113.494 19.9004C113.254 19.3221 112.895 18.8566 112.415 18.504C111.95 18.1514 111.371 17.9751 110.68 17.9751C109.989 17.9751 109.404 18.1514 108.924 18.504C108.445 18.8566 108.085 19.3221 107.845 19.9004C107.605 20.4646 107.485 21.0781 107.485 21.741C107.485 22.3899 107.605 23.0034 107.845 23.5817C108.085 24.16 108.445 24.6254 108.924 24.9781C109.404 25.3307 109.989 25.507 110.68 25.507Z" fill="#770E31"/>
<path d="M102.516 14.2088C102.079 14.2088 101.719 14.0607 101.437 13.7645C101.155 13.4683 101.014 13.1227 101.014 12.7278C101.014 12.3188 101.155 11.9732 101.437 11.6911C101.719 11.3949 102.079 11.2468 102.516 11.2468C102.953 11.2468 103.313 11.3949 103.595 11.6911C103.891 11.9732 104.039 12.3188 104.039 12.7278C104.039 13.1369 103.891 13.4895 103.595 13.7857C103.313 14.0678 102.953 14.2088 102.516 14.2088ZM101.331 27.3473V16.1341H103.743V27.3473H101.331Z" fill="#770E31"/>
<path d="M89.6787 27.3476V16.1344H92.0906V17.7635H92.2176C92.3163 17.566 92.4855 17.3263 92.7253 17.0442C92.9651 16.748 93.2966 16.487 93.7197 16.2614C94.1569 16.0357 94.707 15.9229 95.3699 15.9229C96.2021 15.9229 96.9003 16.1133 97.4645 16.4941C98.0287 16.8749 98.4518 17.3827 98.7339 18.0174C99.0301 18.6521 99.1782 19.3503 99.1782 20.1119V27.3476H96.7663V20.3658C96.7663 19.6888 96.5759 19.1176 96.1951 18.6521C95.8284 18.1867 95.2783 17.9539 94.5448 17.9539C93.9665 17.9539 93.494 18.102 93.1273 18.3982C92.7747 18.6803 92.5138 19.0541 92.3445 19.5195C92.1752 19.9709 92.0906 20.4575 92.0906 20.9794V27.3476H89.6787Z" fill="#770E31"/>
<path d="M82.73 27.5589C81.5029 27.5589 80.4662 27.2838 79.6199 26.7337C78.7877 26.1836 78.153 25.4643 77.7158 24.5757C77.2926 23.6871 77.0811 22.7421 77.0811 21.7407C77.0811 20.7392 77.2926 19.7942 77.7158 18.9056C78.153 18.017 78.7877 17.2977 79.6199 16.7476C80.4662 16.1975 81.5029 15.9225 82.73 15.9225C83.943 15.9225 84.9656 16.1975 85.7977 16.7476C86.644 17.2977 87.2787 18.017 87.7019 18.9056C88.1391 19.7942 88.3577 20.7392 88.3577 21.7407C88.3577 22.7421 88.1391 23.6871 87.7019 24.5757C87.2787 25.4643 86.644 26.1836 85.7977 26.7337C84.9656 27.2838 83.943 27.5589 82.73 27.5589ZM82.73 25.5066C83.4211 25.5066 83.9994 25.3303 84.4649 24.9777C84.9444 24.6251 85.3041 24.1596 85.5439 23.5813C85.7977 23.003 85.9247 22.3895 85.9247 21.7407C85.9247 21.0777 85.7977 20.4642 85.5439 19.9C85.3041 19.3217 84.9444 18.8563 84.4649 18.5036C83.9994 18.151 83.4211 17.9747 82.73 17.9747C82.0389 17.9747 81.4535 18.151 80.9739 18.5036C80.4944 18.8563 80.1347 19.3217 79.8949 19.9C79.6552 20.4642 79.5353 21.0777 79.5353 21.7407C79.5353 22.3895 79.6552 23.003 79.8949 23.5813C80.1347 24.1596 80.4944 24.6251 80.9739 24.9777C81.4535 25.3303 82.0389 25.5066 82.73 25.5066Z" fill="#770E31"/>
<path d="M66.2725 27.3459V11.2666H68.6844V17.7618H68.8113C68.91 17.5643 69.0793 17.3246 69.3191 17.0425C69.5589 16.7463 69.8903 16.4853 70.3135 16.2597C70.7507 16.034 71.3008 15.9211 71.9637 15.9211C72.7959 15.9211 73.4941 16.1116 74.0582 16.4924C74.6224 16.8732 75.0456 17.381 75.3277 18.0157C75.6239 18.6504 75.772 19.3486 75.772 20.1102V27.3459H73.3601V20.3641C73.3601 19.6871 73.1697 19.1159 72.7888 18.6504C72.4221 18.1849 71.872 17.9522 71.1386 17.9522C70.5603 17.9522 70.0878 18.1003 69.7211 18.3965C69.3684 18.6786 69.1075 19.0524 68.9382 19.5178C68.769 19.9692 68.6844 20.4558 68.6844 20.9777V27.3459H66.2725Z" fill="#770E31"/>
<path d="M62.9592 27.5586C62.0706 27.5586 61.3583 27.3964 60.8223 27.072C60.2863 26.7476 59.8984 26.3174 59.6587 25.7814C59.433 25.2313 59.3201 24.6389 59.3201 24.0042V18.0802H57.3525V16.1338H59.3201V13.3411H61.732V16.1338H64.3555V18.0802H61.732V23.9619C61.732 25.0197 62.3174 25.5487 63.4881 25.5487C63.7843 25.5487 64.0593 25.5275 64.3132 25.4852C64.5671 25.4429 64.694 25.4217 64.694 25.4217V27.3893C64.694 27.3893 64.5177 27.4175 64.1651 27.474C63.8266 27.5304 63.4246 27.5586 62.9592 27.5586Z" fill="#770E31"/>
<path d="M51.2756 27.3473V18.0805H49.4561V16.1341H51.2756V14.9281C51.2756 14.4909 51.332 14.0466 51.4448 13.5952C51.5577 13.1439 51.7481 12.7278 52.0161 12.347C52.284 11.952 52.6508 11.6417 53.1162 11.4161C53.5817 11.1763 54.167 11.0564 54.8723 11.0564C55.2813 11.0564 55.6198 11.0917 55.8878 11.1622C56.1558 11.2186 56.2898 11.2468 56.2898 11.2468V13.0663C56.2898 13.0663 56.184 13.0452 55.9724 13.0028C55.775 12.9605 55.5493 12.9394 55.2954 12.9394C54.6748 12.9394 54.2516 13.1298 54.026 13.5106C53.8003 13.8773 53.6875 14.3498 53.6875 14.9281V16.1341H56.184V18.0805H53.6875V27.3473H51.2756Z" fill="#770E31"/>
<path d="M41.6867 15.9225C42.392 15.9225 42.9773 16.0353 43.4428 16.261C43.9223 16.4867 44.3032 16.7476 44.5852 17.0438C44.8673 17.34 45.0719 17.5939 45.1988 17.8055H45.3257V16.1341H47.7376V27.3473H45.3257V25.6759H45.1988C45.0719 25.8874 44.8673 26.1413 44.5852 26.4375C44.3032 26.7337 43.9223 26.9947 43.4428 27.2203C42.9773 27.446 42.392 27.5589 41.6867 27.5589C40.8405 27.5589 40.1 27.3967 39.4653 27.0722C38.8446 26.7337 38.3228 26.2894 37.8996 25.7393C37.4765 25.1752 37.1591 24.5475 36.9476 23.8564C36.7501 23.1652 36.6514 22.46 36.6514 21.7407C36.6514 21.0213 36.7501 20.3161 36.9476 19.625C37.1591 18.9338 37.4765 18.3132 37.8996 17.7631C38.3228 17.199 38.8446 16.7547 39.4653 16.4303C40.1 16.0917 40.8405 15.9225 41.6867 15.9225ZM42.2157 17.9324C41.5245 17.9324 40.9462 18.1228 40.4808 18.5036C40.0153 18.8704 39.6627 19.3429 39.4229 19.9212C39.1973 20.4995 39.0844 21.106 39.0844 21.7407C39.0844 22.3754 39.1973 22.9819 39.4229 23.5602C39.6627 24.1385 40.0153 24.618 40.4808 24.9989C40.9462 25.3656 41.5245 25.5489 42.2157 25.5489C42.9068 25.5489 43.478 25.3656 43.9294 24.9989C44.3948 24.618 44.7404 24.1385 44.9661 23.5602C45.2059 22.9819 45.3257 22.3754 45.3257 21.7407C45.3257 21.106 45.2059 20.4995 44.9661 19.9212C44.7404 19.3429 44.3948 18.8704 43.9294 18.5036C43.478 18.1228 42.9068 17.9324 42.2157 17.9324Z" fill="#770E31"/>
<path d="M5.28271 40C-4.44648 19.1489 17.2557 20 24.003 8.85216C20.6599 18.2979 5.95893 21.0605 4.48969 29.3617C24.3979 31.9696 31.4289 11.4968 27.0212 0C24.003 7.65957 14.2701 8.27659 6.92313 13.517C0.533407 18.0746 -2.62694 29.4215 2.69905 40H5.28271Z" fill="#C20E3F"/>
</svg>
