<svg width="1861" height="454" viewBox="0 0 1861 454" fill="none" xmlns="http://www.w3.org/2000/svg">
<path d="M1801.66 324.384C1789.33 324.384 1779.15 322.721 1771.13 319.394C1763.3 315.871 1757.04 311.664 1752.34 306.771C1747.64 301.683 1744.12 296.595 1741.77 291.506C1739.62 286.418 1738.25 282.21 1737.66 278.883C1737.07 275.361 1736.78 273.599 1736.78 273.599H1769.37C1769.37 273.599 1769.66 274.872 1770.25 277.416C1771.03 279.764 1772.5 282.504 1774.65 285.635C1776.8 288.766 1780.13 291.604 1784.63 294.148C1789.13 296.497 1795.1 297.671 1802.54 297.671C1811.54 297.671 1818.19 295.616 1822.5 291.506C1827 287.397 1829.25 282.7 1829.25 277.416C1829.25 272.327 1827.39 268.316 1823.67 265.38C1819.95 262.444 1814.67 260.194 1807.82 258.628L1786.69 253.931C1778.47 251.974 1770.74 249.332 1763.49 246.005C1756.45 242.483 1750.68 237.884 1746.17 232.208C1741.87 226.337 1739.72 218.803 1739.72 209.605C1739.72 196.101 1744.81 184.946 1754.98 176.14C1765.16 167.333 1778.86 162.93 1796.08 162.93C1807.23 162.93 1816.43 164.495 1823.67 167.627C1831.11 170.758 1836.98 174.672 1841.29 179.369C1845.59 183.87 1848.82 188.469 1850.97 193.166C1853.13 197.667 1854.5 201.483 1855.08 204.614C1855.87 207.55 1856.26 209.018 1856.26 209.018H1824.85C1824.85 209.018 1824.55 208.039 1823.97 206.082C1823.38 204.125 1822.11 201.874 1820.15 199.33C1818.19 196.591 1815.26 194.242 1811.34 192.285C1807.63 190.132 1802.54 189.056 1796.08 189.056C1787.27 189.056 1780.91 191.013 1777 194.927C1773.08 198.841 1771.13 203.049 1771.13 207.55C1771.13 212.247 1772.99 215.965 1776.7 218.705C1780.62 221.249 1785.71 223.206 1791.97 224.576L1812.81 229.273C1826.71 232.404 1838.16 237.59 1847.16 244.831C1856.16 251.877 1860.66 262.151 1860.66 275.654C1860.66 284.657 1858.31 292.876 1853.62 300.313C1849.11 307.554 1842.46 313.425 1833.65 317.926C1824.85 322.232 1814.18 324.384 1801.66 324.384Z" fill="white"/>
<path d="M1643.69 324.384C1626.66 324.384 1612.28 320.568 1600.53 312.936C1588.99 305.303 1580.18 295.322 1574.12 282.993C1568.24 270.664 1565.31 257.552 1565.31 243.657C1565.31 229.762 1568.24 216.65 1574.12 204.321C1580.18 191.992 1588.99 182.011 1600.53 174.378C1612.28 166.746 1626.66 162.93 1643.69 162.93C1660.52 162.93 1674.71 166.746 1686.25 174.378C1697.99 182.011 1706.8 191.992 1712.67 204.321C1718.74 216.65 1721.77 229.762 1721.77 243.657C1721.77 257.552 1718.74 270.664 1712.67 282.993C1706.8 295.322 1697.99 305.303 1686.25 312.936C1674.71 320.568 1660.52 324.384 1643.69 324.384ZM1643.69 295.91C1653.28 295.91 1661.3 293.463 1667.76 288.571C1674.41 283.678 1679.4 277.22 1682.73 269.196C1686.25 261.172 1688.01 252.659 1688.01 243.657C1688.01 234.459 1686.25 225.946 1682.73 218.118C1679.4 210.094 1674.41 203.636 1667.76 198.743C1661.3 193.851 1653.28 191.404 1643.69 191.404C1634.1 191.404 1625.98 193.851 1619.32 198.743C1612.67 203.636 1607.68 210.094 1604.35 218.118C1601.02 225.946 1599.36 234.459 1599.36 243.657C1599.36 252.659 1601.02 261.172 1604.35 269.196C1607.68 277.22 1612.67 283.678 1619.32 288.571C1625.98 293.463 1634.1 295.91 1643.69 295.91Z" fill="white"/>
<path d="M1530.41 139.15C1524.34 139.15 1519.35 137.095 1515.44 132.986C1511.52 128.876 1509.56 124.081 1509.56 118.602C1509.56 112.926 1511.52 108.131 1515.44 104.217C1519.35 100.108 1524.34 98.0527 1530.41 98.0527C1536.47 98.0527 1541.46 100.108 1545.38 104.217C1549.49 108.131 1551.54 112.926 1551.54 118.602C1551.54 124.277 1549.49 129.169 1545.38 133.279C1541.46 137.193 1536.47 139.15 1530.41 139.15ZM1513.97 321.447V165.864H1547.43V321.447H1513.97Z" fill="white"/>
<path d="M1352.29 321.449V165.865H1385.76V188.469H1387.52C1388.89 185.729 1391.24 182.402 1394.56 178.488C1397.89 174.378 1402.49 170.758 1408.36 167.627C1414.43 164.495 1422.06 162.93 1431.26 162.93C1442.81 162.93 1452.49 165.572 1460.32 170.856C1468.15 176.14 1474.02 183.185 1477.93 191.992C1482.04 200.798 1484.1 210.485 1484.1 221.053V321.449H1450.63V224.576C1450.63 215.182 1447.99 207.256 1442.71 200.798C1437.62 194.34 1429.99 191.111 1419.81 191.111C1411.79 191.111 1405.23 193.166 1400.14 197.275C1395.25 201.19 1391.63 206.376 1389.28 212.834C1386.93 219.096 1385.76 225.848 1385.76 233.089V321.449H1352.29Z" fill="white"/>
<path d="M1255.88 324.384C1238.85 324.384 1224.47 320.568 1212.73 312.936C1201.18 305.303 1192.37 295.322 1186.31 282.993C1180.44 270.664 1177.5 257.552 1177.5 243.657C1177.5 229.762 1180.44 216.65 1186.31 204.321C1192.37 191.992 1201.18 182.011 1212.73 174.378C1224.47 166.746 1238.85 162.93 1255.88 162.93C1272.71 162.93 1286.9 166.746 1298.44 174.378C1310.19 182.011 1318.99 191.992 1324.86 204.321C1330.93 216.65 1333.96 229.762 1333.96 243.657C1333.96 257.552 1330.93 270.664 1324.86 282.993C1318.99 295.322 1310.19 305.303 1298.44 312.936C1286.9 320.568 1272.71 324.384 1255.88 324.384ZM1255.88 295.91C1265.47 295.91 1273.49 293.463 1279.95 288.571C1286.6 283.678 1291.59 277.22 1294.92 269.196C1298.44 261.172 1300.21 252.659 1300.21 243.657C1300.21 234.459 1298.44 225.946 1294.92 218.118C1291.59 210.094 1286.6 203.636 1279.95 198.743C1273.49 193.851 1265.47 191.404 1255.88 191.404C1246.29 191.404 1238.17 193.851 1231.51 198.743C1224.86 203.636 1219.87 210.094 1216.54 218.118C1213.22 225.946 1211.55 234.459 1211.55 243.657C1211.55 252.659 1213.22 261.172 1216.54 269.196C1219.87 277.22 1224.86 283.678 1231.51 288.571C1238.17 293.463 1246.29 295.91 1255.88 295.91Z" fill="white"/>
<path d="M1027.53 321.425V98.3242H1061V188.445H1062.76C1064.13 185.705 1066.48 182.378 1069.8 178.464C1073.13 174.355 1077.73 170.734 1083.6 167.603C1089.67 164.472 1097.3 162.906 1106.5 162.906C1118.04 162.906 1127.73 165.548 1135.56 170.832C1143.39 176.116 1149.26 183.161 1153.17 191.968C1157.28 200.774 1159.34 210.462 1159.34 221.03V321.425H1125.87V224.552C1125.87 215.159 1123.23 207.233 1117.95 200.774C1112.86 194.316 1105.23 191.087 1095.05 191.087C1087.02 191.087 1080.47 193.142 1075.38 197.252C1070.49 201.166 1066.87 206.352 1064.52 212.81C1062.17 219.073 1061 225.824 1061 233.065V321.425H1027.53Z" fill="white"/>
<path d="M981.557 324.385C969.228 324.385 959.345 322.135 951.908 317.634C944.472 313.132 939.09 307.163 935.763 299.727C932.632 292.094 931.066 283.875 931.066 275.068V192.873H903.766V165.866H931.066V127.117H964.531V165.866H1000.93V192.873H964.531V274.481C964.531 289.159 972.653 296.498 988.896 296.498C993.006 296.498 996.822 296.204 1000.34 295.617C1003.87 295.03 1005.63 294.736 1005.63 294.736V322.037C1005.63 322.037 1003.18 322.428 998.29 323.211C993.593 323.994 988.016 324.385 981.557 324.385Z" fill="white"/>
<path d="M819.449 321.448V192.871H794.203V165.864H819.449V149.131C819.449 143.065 820.232 136.9 821.797 130.638C823.363 124.375 826.005 118.602 829.723 113.318C833.441 107.838 838.53 103.533 844.988 100.402C851.446 97.0746 859.568 95.4111 869.353 95.4111C875.028 95.4111 879.725 95.9004 883.443 96.8789C887.162 97.6617 889.021 98.0531 889.021 98.0531V123.299C889.021 123.299 887.553 123.005 884.618 122.418C881.878 121.831 878.747 121.537 875.224 121.537C866.613 121.537 860.742 124.179 857.611 129.463C854.479 134.552 852.914 141.108 852.914 149.131V165.864H887.553V192.871H852.914V321.448H819.449Z" fill="white"/>
<path d="M686.403 162.93C696.188 162.93 704.31 164.495 710.768 167.627C717.422 170.758 722.706 174.378 726.62 178.488C730.534 182.598 733.371 186.12 735.133 189.056H736.894V165.865H770.359V321.449H736.894V298.258H735.133C733.371 301.194 730.534 304.716 726.62 308.826C722.706 312.936 717.422 316.556 710.768 319.687C704.31 322.819 696.188 324.384 686.403 324.384C674.661 324.384 664.386 322.134 655.58 317.633C646.969 312.936 639.728 306.771 633.857 299.139C627.986 291.311 623.582 282.602 620.647 273.012C617.907 263.423 616.537 253.638 616.537 243.657C616.537 233.676 617.907 223.891 620.647 214.302C623.582 204.712 627.986 196.101 633.857 188.469C639.728 180.641 646.969 174.476 655.58 169.975C664.386 165.278 674.661 162.93 686.403 162.93ZM693.742 190.817C684.152 190.817 676.129 193.459 669.67 198.743C663.212 203.832 658.32 210.388 654.993 218.411C651.861 226.435 650.296 234.85 650.296 243.657C650.296 252.464 651.861 260.879 654.993 268.903C658.32 276.926 663.212 283.58 669.67 288.864C676.129 293.953 684.152 296.497 693.742 296.497C703.331 296.497 711.257 293.953 717.52 288.864C723.978 283.58 728.772 276.926 731.904 268.903C735.231 260.879 736.894 252.464 736.894 243.657C736.894 234.85 735.231 226.435 731.904 218.411C728.772 210.388 723.978 203.832 717.52 198.743C711.257 193.459 703.331 190.817 693.742 190.817Z" fill="white"/>
<path d="M402.336 51.6619C402.743 51.6619 403.149 51.255 403.556 51.255C400.301 122.855 349.856 188.352 281.511 209.913C285.579 161.502 310.395 115.125 347.009 84.2071C297.377 108.616 262.391 159.875 259.136 215.609C155.805 235.949 53.6945 155.807 50.0332 50.4414L51.2534 51.6619C51.2534 51.2551 50.8466 50.8482 50.8466 50.4414C123.667 54.1027 187.537 104.548 209.505 172.486C160.687 168.011 114.717 144.009 83.7986 106.989C111.462 163.536 174.925 200.556 238.795 194.861C241.236 181.436 245.304 168.011 251 155.4C251.814 153.366 252.627 151.332 253.848 149.704C281.105 92.7502 340.907 53.2891 403.963 50.4414L402.336 51.6619Z" fill="white"/>
<path d="M402.337 402.744C402.337 403.151 402.743 403.557 402.743 403.964C329.923 400.303 266.053 349.858 244.085 281.919C292.903 286.394 338.873 310.397 369.791 347.417C342.128 290.869 278.665 253.849 214.795 259.545C212.354 272.969 208.286 286.394 202.59 299.006C201.777 301.04 200.963 303.074 199.742 304.701C172.485 361.655 112.683 401.117 49.627 403.964L50.8476 402.744C50.4408 402.744 50.0338 403.151 49.627 403.151C52.8815 331.551 103.327 266.054 171.672 244.492C167.604 292.903 142.788 339.28 106.174 370.198C155.806 345.79 190.792 294.531 194.047 238.797C297.378 218.456 399.489 298.599 403.15 403.964L402.337 402.744Z" fill="white"/>
<path d="M227.004 100.885C247 100.885 263.21 78.2995 263.21 50.4394C263.21 22.5793 247 -0.00585938 227.004 -0.00585938C207.007 -0.00585938 190.797 22.5793 190.797 50.4394C190.797 78.2995 207.007 100.885 227.004 100.885Z" fill="white"/>
<path d="M50.4453 263.206C78.3054 263.206 100.891 246.996 100.891 227C100.891 207.003 78.3054 190.793 50.4453 190.793C22.5852 190.793 0 207.003 0 227C0 246.996 22.5852 263.206 50.4453 263.206Z" fill="white"/>
<path d="M227.004 454C247 454 263.21 431.415 263.21 403.555C263.21 375.694 247 353.109 227.004 353.109C207.007 353.109 190.797 375.694 190.797 403.555C190.797 431.415 207.007 454 227.004 454Z" fill="white"/>
<path d="M403.564 263.206C431.424 263.206 454.009 246.996 454.009 227C454.009 207.003 431.424 190.793 403.564 190.793C375.704 190.793 353.119 207.003 353.119 227C353.119 246.996 375.704 263.206 403.564 263.206Z" fill="white"/>
</svg>
